<svg xmlns="http://www.w3.org/2000/svg" viewBox="0 0 700 700">
    <path fill="currentColor" d="M58.5 1.7C28.7 8 5.6 32.3 1 62c-.8 5.6-1 81-.8 292.5.3 270.6.4 285.3 2.1 291 1 3.3 3.7 9.8 6 14.5 3.4 7 5.8 10.2 13.6 18.1 7.9 7.8 11.1 10.2 18.1 13.6 4.7 2.3 11.2 5 14.5 6 5.7 1.7 20.3 1.8 292 2.1 259.3.2 286.7.1 294-1.4 24.2-4.8 44.2-21.4 54.2-44.9 5.7-13.3 5.4 4.6 5.1-307-.3-271.7-.4-286.3-2.1-292C690 29 671.1 10.1 645.5 2.3c-5.7-1.7-19.3-1.8-293-2C100.8.2 64.6.3 58.5 1.7zm345 228.9c26 4.2 47.6 14.9 67.9 33.5 3.1 2.8 5.5 5.5 5.4 6-.2.4-8.4 7.4-18.3 15.5s-20 16.4-22.4 18.5l-4.4 3.7-5-5.4c-14.1-15.5-39.5-24.9-62.2-23-24.2 2-42 10.1-58.5 26.6-16 16-23.8 33.4-24.8 55.2-.6 14.5.7 21.7 5.9 32.5 11 23.1 38.3 35.4 71.1 32.1 18.5-1.8 38.9-10.8 55.6-24.4 3-2.4 5.7-4.4 6.1-4.4 1 0 32.1 35.7 32.1 36.8 0 1.4-18.6 14.4-28.5 20-16.5 9.4-34.3 16.2-53 20.3-11.6 2.6-38.5 3.6-50.8 2-41.9-5.6-74.4-27.7-88.4-60.2-5.6-12.9-7.4-21.7-8-38.4-1-29.7 6.4-55.4 23.3-81.1 7.7-11.7 27.8-31.8 39.8-39.8 34.7-23.1 77.2-32.5 117.1-26z"/>
</svg>
